<svg xmlns="http://www.w3.org/2000/svg" style="display: none;"><symbol id="facebook-logo" viewBox="0 0 90 90"><title>facebook-logo</title><path id="Facebook__x28_alt_x29_" d="M90,15.001C90,7.119,82.884,0,75,0H15C7.116,0,0,7.119,0,15.001v59.998 C0,82.881,7.116,90,15.001,90H45V56H34V41h11v-5.844C45,25.077,52.568,16,61.875,16H74v15H61.875C60.548,31,59,32.611,59,35.024V41 h15v15H59v34h16c7.884,0,15-7.119,15-15.001V15.001z"/></symbol><symbol id="instagram-logo" viewBox="0 0 169.063 169.063"><title>instagram-logo</title><path d="M122.406,0H46.654C20.929,0,0,20.93,0,46.655v75.752c0,25.726,20.929,46.655,46.654,46.655h75.752 c25.727,0,46.656-20.93,46.656-46.655V46.655C169.063,20.93,148.133,0,122.406,0z M154.063,122.407 c0,17.455-14.201,31.655-31.656,31.655H46.654C29.2,154.063,15,139.862,15,122.407V46.655C15,29.201,29.2,15,46.654,15h75.752 c17.455,0,31.656,14.201,31.656,31.655V122.407z"/><path d="M84.531,40.97c-24.021,0-43.563,19.542-43.563,43.563c0,24.02,19.542,43.561,43.563,43.561s43.563-19.541,43.563-43.561 C128.094,60.512,108.552,40.97,84.531,40.97z M84.531,113.093c-15.749,0-28.563-12.812-28.563-28.561 c0-15.75,12.813-28.563,28.563-28.563s28.563,12.813,28.563,28.563C113.094,100.281,100.28,113.093,84.531,113.093z"/><path d="M129.921,28.251c-2.89,0-5.729,1.17-7.77,3.22c-2.051,2.04-3.23,4.88-3.23,7.78c0,2.891,1.18,5.73,3.23,7.78 c2.04,2.04,4.88,3.22,7.77,3.22c2.9,0,5.73-1.18,7.78-3.22c2.05-2.05,3.22-4.89,3.22-7.78c0-2.9-1.17-5.74-3.22-7.78 C135.661,29.421,132.821,28.251,129.921,28.251z"/></symbol><symbol id="snapchat" viewBox="0 0 512.016 512.016"><title>snapchat</title><path d="M500.459,375.368c-64.521-10.633-93.918-75.887-97.058-83.294c-0.06-0.145-0.307-0.666-0.375-0.819 c-3.234-6.571-4.036-11.904-2.347-15.838c3.388-8.013,17.741-12.553,26.931-15.462c2.586-0.836,5.009-1.604,6.938-2.372 c18.586-7.339,27.913-16.717,27.716-27.895c-0.179-8.866-7.134-17.007-17.434-20.651c-3.55-1.485-7.774-2.295-11.887-2.295 c-2.842,0-7.066,0.401-11.102,2.287c-7.868,3.678-14.865,5.658-20.156,5.888c-2.355-0.094-4.139-0.486-5.427-0.922 c0.162-2.79,0.35-5.658,0.529-8.585l0.094-1.493c2.193-34.807,4.915-78.123-6.673-104.081 c-34.27-76.834-106.999-82.807-128.478-82.807l-10.018,0.094c-21.436,0-94.029,5.965-128.265,82.756 c-11.614,26.018-8.866,69.316-6.664,104.115c0.213,3.422,0.427,6.758,0.614,10.01c-1.468,0.503-3.584,0.947-6.46,0.947 c-6.161,0-13.542-1.997-21.931-5.922c-12.126-5.683-34.295,1.911-37.291,17.647c-1.63,8.516,1.801,20.796,27.383,30.908 c1.988,0.785,4.489,1.587,7.561,2.56c8.576,2.722,22.929,7.27,26.325,15.266c1.681,3.951,0.879,9.284-2.662,16.512 c-1.263,2.944-31.65,72.124-98.765,83.174c-6.963,1.143-11.93,7.322-11.537,14.353c0.111,1.954,0.563,3.917,1.399,5.897 c5.641,13.193,27.119,22.349,67.55,28.766c0.887,2.295,1.92,7.006,2.509,9.737c0.853,3.9,1.749,7.927,2.97,12.1 c1.229,4.224,4.881,11.307,15.445,11.307c3.575,0,7.714-0.811,12.211-1.681c6.468-1.271,15.309-2.995,26.274-2.995 c6.084,0,12.416,0.546,18.825,1.604c12.092,2.005,22.699,9.506,35.004,18.202c18.116,12.809,34.586,22.605,67.524,22.605 c0.87,0,1.732-0.026,2.577-0.085c1.22,0.06,2.449,0.085,3.695,0.085c28.851,0,54.246-7.62,75.494-22.63 c11.742-8.311,22.835-16.162,34.935-18.176c6.426-1.058,12.766-1.604,18.85-1.604c10.513,0,18.901,1.348,26.385,2.816 c5.06,0.998,9.02,1.476,12.672,1.476c7.373,0,12.8-4.053,14.874-11.127c1.195-4.113,2.091-8.021,2.961-12.015 c0.461-2.125,1.57-7.211,2.509-9.66c39.851-6.34,60.203-15.138,65.835-28.297c0.845-1.894,1.34-3.9,1.476-6.033 C512.372,382.707,507.422,376.529,500.459,375.368z"/></symbol><symbol id="youtube-logotype" viewBox="0 0 90.677 90.677"><title>youtube-logotype</title><path d="M82.287,45.907c-0.937-4.071-4.267-7.074-8.275-7.521c-9.489-1.06-19.098-1.065-28.66-1.06 c-9.566-0.005-19.173,0-28.665,1.06c-4.006,0.448-7.334,3.451-8.27,7.521c-1.334,5.797-1.35,12.125-1.35,18.094 c0,5.969,0,12.296,1.334,18.093c0.936,4.07,4.264,7.073,8.272,7.521c9.49,1.061,19.097,1.065,28.662,1.061 c9.566,0.005,19.171,0,28.664-1.061c4.006-0.448,7.336-3.451,8.272-7.521c1.333-5.797,1.34-12.124,1.34-18.093 C83.61,58.031,83.62,51.704,82.287,45.907z M28.9,50.4h-5.54v29.438h-5.146V50.4h-5.439v-4.822H28.9V50.4z M42.877,79.839h-4.629 v-2.785c-1.839,2.108-3.585,3.136-5.286,3.136c-1.491,0-2.517-0.604-2.98-1.897c-0.252-0.772-0.408-1.994-0.408-3.796V54.311 h4.625v18.795c0,1.084,0,1.647,0.042,1.799c0.111,0.718,0.462,1.082,1.082,1.082c0.928,0,1.898-0.715,2.924-2.166v-19.51h4.629 L42.877,79.839L42.877,79.839z M60.45,72.177c0,2.361-0.159,4.062-0.468,5.144c-0.618,1.899-1.855,2.869-3.695,2.869 c-1.646,0-3.234-0.914-4.781-2.824v2.474h-4.625V45.578h4.625v11.189c1.494-1.839,3.08-2.769,4.781-2.769 c1.84,0,3.078,0.969,3.695,2.88c0.311,1.027,0.468,2.715,0.468,5.132V72.177z M77.907,67.918h-9.251v4.525 c0,2.363,0.773,3.543,2.363,3.543c1.139,0,1.802-0.619,2.066-1.855c0.043-0.251,0.104-1.279,0.104-3.134h4.719v0.675 c0,1.491-0.057,2.518-0.099,2.98c-0.155,1.024-0.519,1.953-1.08,2.771c-1.281,1.854-3.179,2.768-5.595,2.768 c-2.42,0-4.262-0.871-5.599-2.614c-0.981-1.278-1.485-3.29-1.485-6.003v-8.941c0-2.729,0.447-4.725,1.43-6.015 c1.336-1.747,3.177-2.617,5.54-2.617c2.321,0,4.161,0.87,5.457,2.617c0.969,1.29,1.432,3.286,1.432,6.015v5.285H77.907z"/><path d="M70.978,58.163c-1.546,0-2.321,1.181-2.321,3.541v2.362h4.625v-2.362C73.281,59.344,72.508,58.163,70.978,58.163z"/><path d="M53.812,58.163c-0.762,0-1.534,0.36-2.307,1.125v15.559c0.772,0.774,1.545,1.14,2.307,1.14 c1.334,0,2.012-1.14,2.012-3.445V61.646C55.824,59.344,55.146,58.163,53.812,58.163z"/><path d="M56.396,34.973c1.705,0,3.479-1.036,5.34-3.168v2.814h4.675V8.82h-4.675v19.718c-1.036,1.464-2.018,2.188-2.953,2.188 c-0.626,0-0.994-0.37-1.096-1.095c-0.057-0.153-0.057-0.722-0.057-1.817V8.82h-4.66v20.4c0,1.822,0.156,3.055,0.414,3.836 C53.854,34.363,54.891,34.973,56.396,34.973z"/><path d="M23.851,20.598v14.021h5.184V20.598L35.271,0h-5.242l-3.537,13.595L22.812,0h-5.455c1.093,3.209,2.23,6.434,3.323,9.646 C22.343,14.474,23.381,18.114,23.851,20.598z"/><path d="M42.219,34.973c2.342,0,4.162-0.881,5.453-2.641c0.981-1.291,1.451-3.325,1.451-6.067v-9.034 c0-2.758-0.469-4.774-1.451-6.077c-1.291-1.765-3.11-2.646-5.453-2.646c-2.33,0-4.149,0.881-5.443,2.646 c-0.993,1.303-1.463,3.319-1.463,6.077v9.034c0,2.742,0.47,4.776,1.463,6.067C38.069,34.092,39.889,34.973,42.219,34.973z M39.988,16.294c0-2.387,0.724-3.577,2.231-3.577c1.507,0,2.229,1.189,2.229,3.577v10.852c0,2.387-0.722,3.581-2.229,3.581 c-1.507,0-2.231-1.194-2.231-3.581V16.294z"/></symbol></svg>